<svg width="137" height="122" viewBox="0 0 137 122" fill="none" xmlns="http://www.w3.org/2000/svg">
<path d="M69.5959 11.2842C85.0084 1.62574 105.969 4.77674 119.532 18.2712C135.904 34.6427 135.904 61.0837 119.532 77.4552L104.736 92.2512" fill="#4D6BC6"/>
<path d="M108.436 95.8814L101.038 88.4834L115.834 73.6874C130.082 59.4394 130.082 36.2179 115.834 21.9014C103.915 9.98241 85.6251 7.37941 72.4046 15.6679L66.8561 6.83141C84.1866 -4.06009 107.888 -0.772095 123.232 14.5719C141.59 32.9299 141.59 62.7959 123.232 81.1539L108.436 95.9499V95.8814Z" fill="#222222"/>
<path d="M123.574 65.2622L107.134 48.8222L76.583 18.2712C60.2115 1.89974 33.7705 1.89974 17.399 18.2712C1.02749 34.6427 1.02749 61.0837 17.399 77.4552L38.497 98.5532L53.293 113.349C57.403 117.459 63.979 117.459 68.089 113.349C72.199 109.239 72.199 102.663 68.089 98.5532L62.198 92.6622L75.487 105.951C79.597 110.061 86.173 110.061 90.283 105.951C94.393 101.841 94.393 95.2652 90.283 91.1552L93.982 94.8542C98.092 98.9642 104.668 98.9642 108.778 94.8542C112.888 90.7442 112.888 84.1682 108.778 80.0582L92.1325 63.4127L108.778 80.0582C112.888 84.1682 119.464 84.1682 123.574 80.0582C127.684 75.9482 127.684 69.3722 123.574 65.2622V65.2622Z" fill="#D7E6F5"/>
<path d="M43.3605 110.677L13.7685 81.0851C-4.5895 62.7271 -4.5895 32.8611 13.7685 14.5031C32.1265 -3.85494 61.9925 -3.85494 80.3505 14.5031L110.902 45.0541L103.504 52.4521L72.9525 21.9011C58.7045 7.65306 35.483 7.65306 21.1665 21.9011C6.9185 36.1491 6.9185 59.3706 21.1665 73.6871L50.7585 103.279L43.3605 110.677Z" fill="#222222"/>
<path d="M60.6909 121.569C56.6494 121.569 52.6764 120.062 49.5939 116.98L34.7979 102.184L42.1959 94.7856L56.9919 109.582C59.0469 111.637 62.3349 111.637 64.3899 109.582C66.4449 107.527 66.4449 104.239 64.3899 102.184L49.5939 87.3876L56.9919 79.9896L71.7879 94.7856C77.8844 100.882 77.8844 110.883 71.7879 116.98C68.7054 120.062 64.7324 121.569 60.6909 121.569V121.569Z" fill="#222222"/>
<path d="M82.885 114.171C78.8435 114.171 74.8705 112.664 71.788 109.582L49.594 87.3876L56.992 79.9896L79.186 102.184C81.241 104.239 84.529 104.239 86.584 102.184C88.639 100.129 88.639 96.8406 86.584 94.7856L64.39 72.5916L71.788 65.1936L93.982 87.3876C100.078 93.4841 100.078 103.485 93.982 109.582C90.8995 112.664 86.9265 114.171 82.885 114.171V114.171Z" fill="#222222"/>
<path d="M101.38 103.142C97.2015 103.142 93.2285 101.498 90.283 98.5529L64.39 72.6599L71.788 65.2619L97.681 91.1549C99.736 93.2099 103.024 93.2099 105.079 91.1549C107.134 89.0999 107.134 85.8119 105.079 83.7569L79.186 57.8639L86.584 50.4659L112.477 76.3589C118.574 82.4554 118.574 92.4564 112.477 98.5529C109.532 101.498 105.559 103.142 101.38 103.142V103.142Z" fill="#222222"/>
<path d="M116.176 88.3461C111.998 88.3461 108.025 86.7021 105.079 83.7566L79.186 57.8636L86.584 50.4656L112.477 76.3586C114.464 78.3451 117.889 78.3451 119.875 76.3586C120.903 75.3996 121.382 74.0296 121.382 72.6596C121.382 71.2896 120.834 69.9196 119.875 68.9606L93.982 43.0676L101.38 35.6696L127.273 61.5626C130.219 64.5081 131.863 68.4811 131.863 72.6596C131.863 76.8381 130.219 80.8111 127.273 83.7566C124.328 86.7021 120.355 88.3461 116.176 88.3461Z" fill="#222222"/>
<path d="M97.2015 24.3673L65.1435 46.8353C59.184 51.0138 51.0325 49.5753 46.854 43.6158C42.744 37.7248 44.114 29.5733 50.005 25.3948C56.992 20.4628 66.034 13.8183 68.911 12.0373C84.3235 2.37877 106.038 4.77627 119.533 18.2708" fill="#4D6BC6"/>
<path d="M53.019 29.5733L59.5265 24.9153C62.883 22.5178 66.308 20.1203 68.774 18.3393C70.007 17.4488 71.0345 16.7638 71.7195 16.3528C73.98 14.9143 76.3775 13.9553 78.912 13.1333C91.4475 9.02327 106.244 12.1743 115.902 21.9013L123.3 14.5033C109.052 0.255268 86.173 -3.16973 68.8425 6.00927C67.952 6.48877 67.0615 6.96827 66.171 7.51627C64.664 8.47527 61.7185 10.5303 58.2935 12.9963C56.7865 14.0923 55.1425 15.2568 53.4985 16.4213L46.991 21.0793C38.771 26.9018 36.7845 38.3413 42.607 46.5613C45.4155 50.6028 49.6625 53.2743 54.4575 54.0963C55.5535 54.3018 56.581 54.3703 57.677 54.3703C61.4445 54.3703 65.075 53.2058 68.1575 51.0138L88.1595 37.0398L96.859 30.9433L89.324 23.4083L80.6245 29.5048L62.1295 42.4513C60.417 43.6843 58.2935 44.0953 56.2385 43.7528C54.1835 43.4103 52.334 42.2458 51.1695 40.5333C48.7035 36.9713 49.5255 32.0393 53.0875 29.5733H53.019Z" fill="#222222"/>
</svg>
