<svg xmlns="http://www.w3.org/2000/svg" viewBox="0 0 860 860" focusable="false" width="860" height="860" preserveAspectRatio="xMidYMid meet" style="width: 100%; height: 100%;">
<defs>
<clipPath id="animationMask_ODtVUMyr7f">
<rect width="860" height="860" x="0" y="0">
</rect>
</clipPath>
<clipPath id="cp_39K6cmtg">
<path d="M0,0 L760,0 L760,760 L0,760z">
</path>
</clipPath>
<clipPath id="cp_10EqmE9s">
<path d="M0,0 L292,0 L292,250 L0,250z"></path>
</clipPath>
<filter id="jKrQPDQl1J" filterUnits="objectBoundingBox" x="0%" y="0%" width="100%" height="100%">
<feColorMatrix type="matrix" color-interpolation-filters="sRGB" values="0 0 0 0 0.9764705896377563 0 0 0 0 0.6666666865348816 0 0 0 0 0.5568627715110779 0 0 0 1 0">
</feColorMatrix></filter><mask id="dOv237JN5l">
<path fill="#ffffff" clip-rule="nonzero" d=" M180.60800170898438,-7.693999767303467 C179.62100219726562,-31.760000228881836 168.70254516601562,-45.465354919433594 156.43283081054688,-66.3988265991211 C153.37701416015625,-71.6124496459961 151.73483276367188,-77.41883087158203 146.06582641601562,-78.2458267211914 C141.0298309326172,-78.97982788085938 135.923828125,-76.31082916259766 133.4778289794922,-71.58182525634766 C130.67483520507812,-63.6378288269043 128.82183837890625,-49.556827545166016 121.76983642578125,-34.642826080322266 C114.71783447265625,-19.72882652282715 107.31400299072266,-19.009000778198242 106.96900177001953,4.423999786376953 C106.6240005493164,27.85700035095215 100.4209976196289,44.39799880981445 113.86000061035156,56.11399841308594 C127.29900360107422,67.83000183105469 157,59.38600158691406 161.75999450683594,56.11399841308594 C167.2740020751953,52.323001861572266 171.57000732421875,42.22600173950195 174.31399536132812,34.513999938964844 C180.29400634765625,17.70599937438965 181.031005859375,2.6089999675750732 180.60800170898438,-7.693999767303467" fill-opacity="1">
</path>
</mask>
<path d="" fill-opacity="1">
</path><path d="" fill-opacity="1"></path>
<path d="" fill-opacity="1"></path><clipPath id="cNpHfZvcYO">
</clipPath>
<filter id="CCFMs5cOlC" filterUnits="objectBoundingBox" x="0%" y="0%" width="100%" height="100%">
<feColorMatrix type="matrix" color-interpolation-filters="sRGB" values="0 0 0 0 0.9764705896377563 0 0 0 0 0.6666666865348816 0 0 0 0 0.5568627715110779 0 0 0 1 0">
</feColorMatrix>
</filter>
<mask id="cuVr3VOrn8"><path fill="#ffffff" clip-rule="nonzero" d=" M228.24200439453125,197.2050018310547 C214.7519989013672,158.4969940185547 201.26199340820312,119.79000091552734 187.77200317382812,81.08200073242188 C181.9459991455078,56.73899841308594 173.531005859375,2.5920000076293945 169.47799682617188,-31.341999053955078 C168.7550048828125,-37.43600082397461 167.66400146484375,-45.49100112915039 166.00900268554688,-54.90700149536133 C165.31700134277344,-58.84400177001953 162.3470001220703,-75.41100311279297 156.31500244140625,-97.30699920654297 C152.86599731445312,-109.8290023803711 148.18600463867188,-124.92500305175781 141.8070068359375,-141.8179931640625 C139.73800659179688,-147.8730010986328 133.52200317382812,-151.41799926757812 127.55899810791016,-150.18899536132812 C122.12300109863281,-149.06900024414062 118.00599670410156,-144.20899963378906 117.75,-138.41299438476562 C119.14700317382812,-131.29400634765625 120.45999908447266,-123.98799896240234 121.66999816894531,-116.49600219726562 C124.5459976196289,-98.68499755859375 126.5530014038086,-81.60700225830078 127.88700103759766,-65.38500213623047 C126.38700103759766,-83.62699890136719 124.02999877929688,-103.01100158691406 120.5260009765625,-123.3499984741211 C118.93800354003906,-132.56700134277344 117.197998046875,-141.5 115.33799743652344,-150.14100646972656 C113.95999908447266,-157.45399475097656 107.14399719238281,-162.49000549316406 99.91999816894531,-161.70599365234375 C92.43900299072266,-160.8939971923828 86.80500030517578,-154.08700561523438 87.38300323486328,-146.39700317382812 C88.3219985961914,-133.91400146484375 89.67400360107422,-115.78600311279297 91.2770004272461,-93.7030029296875 C92.50800323486328,-76.74800109863281 93.51300048828125,-62.60300064086914 93.51399993896484,-62.60300064086914 C93.51499938964844,-62.60300064086914 92.51799774169922,-76.70099639892578 91.2770004272461,-93.7030029296875 C90.0780029296875,-110.13400268554688 89.06700134277344,-123.5989990234375 88.38099670410156,-132.6580047607422 C87.68699645996094,-139.0780029296875 82.26200103759766,-143.97999572753906 75.9280014038086,-144.03500366210938 C69.39199829101562,-144.09100341796875 63.768001556396484,-138.96800231933594 63.2239990234375,-132.322998046875 C62.11000061035156,-122.28500366210938 60.81100082397461,-107.97899627685547 60.23899841308594,-90.68499755859375 C59.62900161743164,-72.24500274658203 60.03499984741211,-56.1870002746582 60.04899978637695,-56.1870002746582 C60.058998107910156,-56.1870002746582 60.02899932861328,-64.197998046875 60.11800003051758,-77.28900146484375 C60.15299987792969,-82.3759994506836 60.19599914550781,-86.88899993896484 60.23899841308594,-90.68499755859375 C58.720001220703125,-96.24199676513672 53.558998107910156,-99.92900085449219 48.12200164794922,-99.5530014038086 C43.321998596191406,-99.22100067138672 39.124000549316406,-95.7770004272461 37.71900177001953,-90.94400024414062 C30.173999786376953,-55.444000244140625 28.045000076293945,-24.461999893188477 27.88800048828125,-0.5320000052452087 C27.780000686645508,15.946000099182129 28.524999618530273,41.435001373291016 33.349998474121094,72.21199798583984 C37.24399948120117,97.04900360107422 42.72600173950195,118.50700378417969 48.12900161743164,135.9669952392578 C55.46500015258789,161.15699768066406 62.79999923706055,186.3470001220703 70.13600158691406,211.53700256347656 C122.83799743652344,206.75999450683594 175.5399932861328,201.98199462890625 228.24200439453125,197.2050018310547" fill-opacity="1">
</path>
</mask>
<path d="" fill-opacity="1">
</path>
<path d="" fill-opacity="1">
</path>
<path d="" fill-opacity="1">
</path>
<clipPath id="SRlZF3Fdec">
</clipPath>
<filter id="Nzv7pVbpdm" filterUnits="objectBoundingBox" x="0%" y="0%" width="100%" height="100%"><feColorMatrix type="matrix" color-interpolation-filters="sRGB" values="0 0 0 0 0.9764705896377563 0 0 0 0 0.6666666865348816 0 0 0 0 0.5568627715110779 0 0 0 1 0">
</feColorMatrix>
</filter>
<mask id="IiYGA8yaRo"><path fill="#ffffff" clip-rule="nonzero" d=" M217.5224151611328,177.1555633544922 C169.8334197998047,190.6985626220703 121.47005462646484,204.324462890625 73.78105926513672,217.86746215820312 C70.68905639648438,206.5814666748047 67.77220916748047,196.41195678710938 64.68020629882812,185.12596130371094 C56.70315933227539,178.4098358154297 46.47996139526367,168.61512756347656 36.77521896362305,155.42617797851562 C23.795337677001953,137.7454833984375 17.303543090820312,120.7132339477539 13.96288013458252,108.6924057006836 C10.235373497009277,94.10049438476562 5.224916934967041,78.49652099609375 -2.2823054790496826,61.77729034423828 C-6.426209926605225,51.12139129638672 -9.50598430633545,38.83877182006836 -13.263628959655762,32.130069732666016 C-15.732985496520996,28.804180145263672 -15.630188941955566,24.280715942382812 -13.149670600891113,21.289121627807617 C-10.347338676452637,17.908447265625 -5.1056623458862305,17.199411392211914 -1.247244119644165,19.929777145385742 C1.0126962661743164,21.867671966552734 4.389241695404053,24.84231948852539 8.332618713378906,28.64320182800293 C18.78367805480957,38.717079162597656 26.503215789794922,48.12417221069336 26.52750587463379,48.10204315185547 C26.536975860595703,48.093570709228516 25.295347213745117,46.6115608215332 23.0802001953125,44.12911605834961 C18.580875396728516,39.08723831176758 11.026485443115234,28.20256233215332 -0.7562440037727356,17.99875259399414 C-5.897421836853027,13.546302795410156 -12.477255821228027,8.226860046386719 -20.476049423217773,2.6194868087768555 C-25.14858055114746,-0.9875788688659668 -26.2218074798584,-7.384530067443848 -23.364221572875977,-11.764400482177734 C-21.033296585083008,-15.337494850158691 -16.392812728881836,-17.097959518432617 -11.854720115661621,-16.024694442749023 C-3.679314374923706,-12.499215126037598 5.687467575073242,-8.827255249023438 15.481698036193848,-2.451176881790161 C28.938695907592773,6.309338092803955 39.37501525878906,15.637831687927246 47.14152145385742,23.668331146240234 C39.37501525878906,15.637831687927246 28.938695907592773,6.309338092803955 15.481698036193848,-2.451176881790161 C5.687350273132324,-8.826373100280762 -3.750546932220459,-12.97179126739502 -11.788533210754395,-16.69876480102539 C-16.183473587036133,-19.798376083374023 -17.42536735534668,-26.17862892150879 -14.700460433959961,-30.609821319580078 C-12.115211486816406,-34.81377029418945 -6.647729396820068,-36.52299118041992 -1.9862842559814453,-34.46299362182617 C4.834573268890381,-32.085506439208984 14.724842071533203,-28.3300724029541 26.221633911132812,-22.786691665649414 C49.95793914794922,-11.343098640441895 65.44445037841797,0.44256696105003357 65.45585632324219,0.4246792793273926 C65.46726989746094,0.406791627407074 49.91775131225586,-11.368385314941406 26.221633911132812,-22.786691665649414 C16.240880966186523,-27.595937728881836 7.670352935791016,-30.96628761291504 1.6825337409973145,-33.15275192260742 C-0.7646446824073792,-36.48005676269531 -0.7638481855392456,-40.960018157958984 1.6045035123825073,-44.07994842529297 C3.6366446018218994,-46.75790786743164 7.1174139976501465,-48.043514251708984 10.546485900878906,-47.39875793457031 C28.878828048706055,-44.5915641784668 56.590904235839844,-38.66701889038086 85.49514770507812,-23.20760726928711 C95.86022186279297,-16.805126190185547 114.6368179321289,-9.999289512634277 134.66184997558594,11.306328773498535 C175.4246826171875,53.5174674987793 195.34310913085938,117.7335205078125 202.75210571289062,137.19451904296875 C207.74810791015625,150.31752014160156 212.90042114257812,164.26756286621094 217.5224151611328,177.1555633544922" fill-opacity="1">
</path>
</mask>
<path d="" fill-opacity="1">
</path>
<path d="" fill-opacity="1">
</path>
<mask id="AfsHyJ9lx9">
<rect fill="#ffffff" width="760" height="760" x="-183.28355407714844" y="-558.5222778320312"></rect><path fill="#000000" clip-rule="nonzero" d="" fill-opacity="1">
</path>
</mask>
<filter id="XDr3PAE2IZ" filterUnits="objectBoundingBox" x="0%" y="0%" width="100%" height="100%">
<feColorMatrix type="matrix" color-interpolation-filters="sRGB" values="0 0 0 0 0.6784313917160034 0 0 0 0 0.12156862765550613 0 0 0 0 0.1764705926179886 0 0 0 1 0">
</feColorMatrix>
</filter>
<mask id="bd7cxNWyQp">
<path fill="#ffffff" clip-rule="nonzero" d=" M-88.66083526611328,33.84480667114258 C-89.68327331542969,23.34830093383789 -92.96564483642578,11.02079963684082 -106.33894348144531,-7.0743608474731445 C-114.56652069091797,-18.20703125 -124.3068618774414,-24.388078689575195 -130.26287841796875,-27.52699089050293 C-133.70529174804688,-38.606422424316406 -137.14857482910156,-49.68528366088867 -140.59100341796875,-60.76471710205078 C-143.6022186279297,-68.86617279052734 -152.21270751953125,-72.47528839111328 -158.50564575195312,-69.83619689941406 C-163.212646484375,-67.8625259399414 -166.349365234375,-62.50608444213867 -166.13026428222656,-56.54691696166992 C-167.5672149658203,-37.69214630126953 -168.16416931152344,-24.2755184173584 -168.2827606201172,-4.3999552726745605 C-167.6330108642578,15.002508163452148 -168.00157165527344,31.709196090698242 -157.64857482910156,51.03319549560547 C-147.29556274414062,70.35719299316406 -133.0052947998047,84.69265747070312 -109.74728393554688,78.62566375732422 C-86.48928833007812,72.55866241455078 -87.63838958740234,44.341312408447266 -88.66083526611328,33.84480667114258" fill-opacity="1">
</path>
</mask>
<mask id="3U9FzxgMmA">
<path fill="#ffffff" clip-rule="nonzero" d=" M-84.26699829101562,43.90700149536133 C-84.46600341796875,33.319000244140625 -89.39099884033203,23.398000717163086 -101.35700225830078,4.232999801635742 C-108.71900177001953,-7.558000087738037 -117.98400115966797,-14.51099967956543 -123.69999694824219,-18.121000289916992 C-126.2760009765625,-29.482999801635742 -128.8520050048828,-40.84400177001953 -131.42799377441406,-52.20600128173828 C-133.80599975585938,-60.553001403808594 -142.14199829101562,-64.84300231933594 -148.6490020751953,-62.69499969482422 C-153.51600646972656,-61.0890007019043 -157.07699584960938,-55.972999572753906 -157.3260040283203,-49.9900016784668 C-160.24600219726562,-31.22800064086914 -161.7030029296875,-21.93199920654297 -162.3280029296875,-1.3930000066757202 C-161.31100463867188,23.77400016784668 -162.4429931640625,37.71799850463867 -152.08999633789062,57.04199981689453 C-141.73699951171875,76.36599731445312 -130.16600036621094,88.16899871826172 -106.90799713134766,82.10199737548828 C-83.6500015258789,76.03500366210938 -84.06800079345703,54.494998931884766 -84.26699829101562,43.90700149536133" fill-opacity="1">
</path>
</mask>
<filter id="bRNFlMynKK" filterUnits="objectBoundingBox" x="0%" y="0%" width="100%" height="100%">
<feColorMatrix type="matrix" color-interpolation-filters="sRGB" values="0 0 0 0 0.6784313917160034 0 0 0 0 0.12156862765550613 0 0 0 0 0.1764705926179886 0 0 0 1 0">
</feColorMatrix>
</filter>
<mask id="zKuxDsJpR9">
<path fill="#ffffff" clip-rule="nonzero" d=" M-37.909000396728516,-108.9010009765625 C-39.61199951171875,-113.4209976196289 -44.1510009765625,-116.07599639892578 -48.483001708984375,-115.38600158691406 C-53.124000549316406,-114.64700317382812 -56.69599914550781,-110.197998046875 -56.49399948120117,-105.10600280761719 C-57.40599822998047,-114.55599975585938 -58.665000915527344,-126.77200317382812 -60.369998931884766,-141.33599853515625 C-60.810001373291016,-147.3489990234375 -65.79100036621094,-151.99400329589844 -71.5459976196289,-152.05599975585938 C-77.56400299072266,-152.1199951171875 -82.75700378417969,-147.1510009765625 -82.9739990234375,-140.88499450683594 C-82.8949966430664,-145.4949951171875 -82.79499816894531,-150.06300354003906 -82.64700317382812,-154.53700256347656 C-82.19200134277344,-162.3489990234375 -88.39700317382812,-168.6529998779297 -95.22699737548828,-168.57200622558594 C-101.04199981689453,-168.5030059814453 -106.43000030517578,-163.81900024414062 -107.41200256347656,-157.34100341796875 C-109.56999969482422,-143.9530029296875 -111.38899993896484,-129.4459991455078 -112.61100006103516,-113.92900085449219 C-112.00700378417969,-123.4739990234375 -111.2509994506836,-132.7779998779297 -110.36900329589844,-141.83099365234375 C-110.85600280761719,-148.77099609375 -116.56400299072266,-153.89100646972656 -122.63999938964844,-153.71499633789062 C-127.58000183105469,-153.57200622558594 -132.12100219726562,-149.93800354003906 -133.7010040283203,-144.7010040283203 C-137.0959930419922,-133.4499969482422 -140.30799865722656,-121.20099639892578 -143.09300231933594,-108.01399993896484 C-146.74400329589844,-90.7239990234375 -153.718994140625,-49.99399948120117 -156.656005859375,-10.829999923706055 C-159.59300231933594,28.333999633789062 -189.92300415039062,175.9250030517578 -189.92300415039062,175.9250030517578 C-189.92300415039062,175.9250030517578 -54.180999755859375,204 -54.180999755859375,204 C-47.47100067138672,169.39199829101562 -40.7599983215332,134.7830047607422 -34.04999923706055,100.17500305175781 C-22.30699920654297,39.612998962402344 -22.086999893188477,24.541000366210938 -21.701000213623047,18.222999572753906 C-19.889999389648438,-11.406000137329102 -21.280000686645508,-54.95199966430664 -37.909000396728516,-108.9010009765625" fill-opacity="1">
</path>
</mask>
<filter id="q4ZaMaQ7cL" filterUnits="objectBoundingBox" x="0%" y="0%" width="100%" height="100%">
<feColorMatrix type="matrix" color-interpolation-filters="sRGB" values="0 0 0 0 0.6784313917160034 0 0 0 0 0.12156862765550613 0 0 0 0 0.1764705926179886 0 0 0 1 0">
</feColorMatrix>
</filter>
<mask id="YAReeHin6Y">
<path fill="#ffffff" clip-rule="nonzero" d=" M215.0000762939453,176.45037841796875 C167.3110809326172,189.99337768554688 124.46368408203125,204.14132690429688 76.77468872070312,217.684326171875 C73.68268585205078,206.3983154296875 71.09847259521484,200.4159698486328 68.0064697265625,189.12997436523438 C61.84260559082031,180.3721466064453 54.337493896484375,167.37648010253906 45.85117721557617,152.7642822265625 C34.45584487915039,133.03822326660156 29.37944793701172,108.34002685546875 26.003488540649414,93.59998321533203 C21.959321975708008,74.57308197021484 24.34766387939453,74.27011108398438 15.27226734161377,58.23014831542969 C10.181961059570312,44.72300720214844 8.731439590454102,17.426721572875977 5.995530605316162,12.284658432006836 C4.180027484893799,9.726004600524902 4.331361770629883,6.301708221435547 6.2586870193481445,4.076930046081543 C8.436158180236816,1.5626994371414185 12.41759967803955,1.112233281135559 15.294677734375,3.2424509525299072 C16.974443435668945,4.746804237365723 19.854496002197266,6.788156986236572 22.77821922302246,9.730306625366211 C30.528257369995117,17.529434204101562 37.774356842041016,20.143665313720703 37.79304122924805,20.12749671936035 C37.800968170166016,20.121082305908203 37.92632293701172,17.16904067993164 36.28913497924805,15.253290176391602 C32.96408462524414,11.361638069152832 26.613033294677734,5.502077579498291 17.856403350830078,-2.417421579360962 C14.035591125488281,-5.873065948486328 9.139737129211426,-10.008877754211426 3.1742570400238037,-14.385917663574219 C-0.3050973117351532,-17.194129943847656 -1.01319420337677,-22.055255889892578 1.2222572565078735,-25.325117111206055 C3.045657157897949,-27.992624282836914 6.589367866516113,-29.25020980834961 10.008342742919922,-28.36316680908203 C16.14208221435547,-25.559720993041992 23.828779220581055,-25.04557228088379 31.141544342041016,-20.057357788085938 C41.189273834228516,-13.203593254089355 48.940250396728516,-5.969399452209473 54.6902961730957,0.239343523979187 C48.940250396728516,-5.969399452209473 41.189273834228516,-13.203593254089355 31.141544342041016,-20.057357788085938 C23.828779220581055,-25.04557228088379 16.18123435974121,-27.049333572387695 10.5795259475708,-30.396154403686523 C7.301758766174316,-32.81550216674805 6.6098480224609375,-38.563411712646484 8.745331764221191,-41.87447738647461 C10.771751403808594,-45.015777587890625 14.940731048583984,-46.2202262878418 18.436403274536133,-44.58422088623047 C23.562585830688477,-42.67256546020508 30.99102020263672,-39.66703414916992 39.60710525512695,-35.2816162109375 C57.394615173339844,-26.2274112701416 68.93009948730469,-17.050142288208008 68.93878173828125,-17.0633602142334 C68.94747161865234,-17.07657814025879 57.36473846435547,-26.247610092163086 39.60710525512695,-35.2816162109375 C32.12797546386719,-39.08656692504883 25.691574096679688,-41.779022216796875 21.193016052246094,-43.5328369140625 C19.394315719604492,-46.09241485595703 20.639873504638672,-48.5469970703125 22.483919143676758,-50.87092590332031 C24.067108154296875,-52.86550521850586 27.616138458251953,-53.22576904296875 31.004905700683594,-51.009674072265625 C45.72456741333008,-47.79279327392578 64.83568572998047,-42.80088424682617 87.94937896728516,-32.80325698852539 C96.36676025390625,-26.0248966217041 134.41798400878906,-9.962286949157715 149.0717010498047,8.296772956848145 C178.62339782714844,41.57429122924805 193.6262969970703,103.92214965820312 199.90609741210938,123.71575927734375 C204.3784942626953,138.1842041015625 210.37808227539062,163.5623779296875 215.0000762939453,176.45037841796875" fill-opacity="1">
</path>
</mask>
<clipPath id="cp_d00ONReF">
<path d="M0,0 L292,0 L292,250 L0,250z">
</path>
</clipPath>
<clipPath id="cp_B3u6jlpH">
<path d="M0,0 L292,0 L292,250 L0,250z">
</path>
</clipPath>
<filter id="RzJfmO39p6" filterUnits="objectBoundingBox" x="0%" y="0%" width="100%" height="100%"><feColorMatrix type="matrix" color-interpolation-filters="sRGB" values="0 0 0 0 0.9764705896377563 0 0 0 0 0.6666666865348816 0 0 0 0 0.5568627715110779 0 0 0 1 0">
</feColorMatrix>
</filter>
<mask id="kchYzjwQFH">
<path fill="#ffffff" clip-rule="nonzero" d=" M180.60800170898438,-7.693999767303467 C179.62100219726562,-31.760000228881836 178.59800720214844,-55.82500076293945 177.64599609375,-79.89199829101562 C177.40699768066406,-85.93800354003906 172.947998046875,-90.91200256347656 167.2790069580078,-91.73899841308594 C162.2429962158203,-92.4729995727539 157.13699340820312,-89.80400085449219 154.6909942626953,-85.07499694824219 C151.88800048828125,-77.13099670410156 150.03599548339844,-63.04999923706055 142.98399353027344,-48.13600158691406 C135.9320068359375,-33.22200012207031 107.31400299072266,-19.009000778198242 106.96900177001953,4.423999786376953 C106.6240005493164,27.85700035095215 100.4209976196289,44.39799880981445 113.86000061035156,56.11399841308594 C127.29900360107422,67.83000183105469 157,59.38600158691406 161.75999450683594,56.11399841308594 C167.2740020751953,52.323001861572266 171.57000732421875,42.22600173950195 174.31399536132812,34.513999938964844 C180.29400634765625,17.70599937438965 181.031005859375,2.6089999675750732 180.60800170898438,-7.693999767303467" fill-opacity="1">
</path>
</mask>
<path d="" fill-opacity="1"></path><path d="" fill-opacity="1">
</path>
<path d="" fill-opacity="1">
</path>
<clipPath id="U1GMItUZEE">
</clipPath><filter id="hQHUxi8RGW" filterUnits="objectBoundingBox" x="0%" y="0%" width="100%" height="100%">
<feColorMatrix type="matrix" color-interpolation-filters="sRGB" values="0 0 0 0 0.9764705896377563 0 0 0 0 0.6666666865348816 0 0 0 0 0.5568627715110779 0 0 0 1 0">
</feColorMatrix>
</filter>
<mask id="kVu6XlRHor">
<path fill="#ffffff" clip-rule="nonzero" d=" M228.24200439453125,197.2050018310547 C214.7519989013672,158.4969940185547 201.26199340820312,119.79000091552734 187.77200317382812,81.08200073242188 C181.9459991455078,56.73899841308594 173.531005859375,2.5920000076293945 169.47799682617188,-31.341999053955078 C168.7550048828125,-37.43600082397461 167.66400146484375,-45.49100112915039 166.00900268554688,-54.90700149536133 C165.31700134277344,-58.84400177001953 162.3470001220703,-75.41100311279297 156.31500244140625,-97.30699920654297 C152.86599731445312,-109.8290023803711 148.18600463867188,-124.92500305175781 141.8070068359375,-141.8179931640625 C139.73800659179688,-147.8730010986328 133.52200317382812,-151.41799926757812 127.55899810791016,-150.18899536132812 C122.12300109863281,-149.06900024414062 118.00599670410156,-144.20899963378906 117.75,-138.41299438476562 C119.14700317382812,-131.29400634765625 120.45999908447266,-123.98799896240234 121.66999816894531,-116.49600219726562 C124.5459976196289,-98.68499755859375 126.5530014038086,-81.60700225830078 127.88700103759766,-65.38500213623047 C126.38700103759766,-83.62699890136719 124.02999877929688,-103.01100158691406 120.5260009765625,-123.3499984741211 C118.93800354003906,-132.56700134277344 117.197998046875,-141.5 115.33799743652344,-150.14100646972656 C113.95999908447266,-157.45399475097656 107.14399719238281,-162.49000549316406 99.91999816894531,-161.70599365234375 C92.43900299072266,-160.8939971923828 86.80500030517578,-154.08700561523438 87.38300323486328,-146.39700317382812 C88.3219985961914,-133.91400146484375 89.67400360107422,-115.78600311279297 91.2770004272461,-93.7030029296875 C92.50800323486328,-76.74800109863281 93.51300048828125,-62.60300064086914 93.51399993896484,-62.60300064086914 C93.51499938964844,-62.60300064086914 92.51799774169922,-76.70099639892578 91.2770004272461,-93.7030029296875 C90.0780029296875,-110.13400268554688 89.06700134277344,-123.5989990234375 88.38099670410156,-132.6580047607422 C87.68699645996094,-139.0780029296875 82.26200103759766,-143.97999572753906 75.9280014038086,-144.03500366210938 C69.39199829101562,-144.09100341796875 63.768001556396484,-138.96800231933594 63.2239990234375,-132.322998046875 C62.11000061035156,-122.28500366210938 60.81100082397461,-107.97899627685547 60.23899841308594,-90.68499755859375 C59.62900161743164,-72.24500274658203 60.03499984741211,-56.1870002746582 60.04899978637695,-56.1870002746582 C60.058998107910156,-56.1870002746582 60.02899932861328,-64.197998046875 60.11800003051758,-77.28900146484375 C60.15299987792969,-82.3759994506836 60.19599914550781,-86.88899993896484 60.23899841308594,-90.68499755859375 C58.720001220703125,-96.24199676513672 53.558998107910156,-99.92900085449219 48.12200164794922,-99.5530014038086 C43.321998596191406,-99.22100067138672 39.124000549316406,-95.7770004272461 37.71900177001953,-90.94400024414062 C30.173999786376953,-55.444000244140625 28.045000076293945,-24.461999893188477 27.88800048828125,-0.5320000052452087 C27.780000686645508,15.946000099182129 28.524999618530273,41.435001373291016 33.349998474121094,72.21199798583984 C37.24399948120117,97.04900360107422 42.72600173950195,118.50700378417969 48.12900161743164,135.9669952392578 C55.46500015258789,161.15699768066406 62.79999923706055,186.3470001220703 70.13600158691406,211.53700256347656 C122.83799743652344,206.75999450683594 175.5399932861328,201.98199462890625 228.24200439453125,197.2050018310547" fill-opacity="1">
</path>
</mask>
<path d="" fill-opacity="1">
</path>
<path d="" fill-opacity="1">
</path>
<path d="" fill-opacity="1">
</path>
<clipPath id="3Jorjt0dsn">
</clipPath>
<filter id="T0KoPTpHEh" filterUnits="objectBoundingBox" x="0%" y="0%" width="100%" height="100%"><feColorMatrix type="matrix" color-interpolation-filters="sRGB" values="0 0 0 0 0.9764705896377563 0 0 0 0 0.6666666865348816 0 0 0 0 0.5568627715110779 0 0 0 1 0">
</feColorMatrix>
</filter>
<mask id="dzXHTTzWHp"><path fill="#ffffff" clip-rule="nonzero" d=" M223.49000549316406,175.6479949951172 C175.80099487304688,189.1909942626953 122.35800170898438,203.447998046875 74.66899871826172,216.99099731445312 C71.5770034790039,205.7050018310547 69.97000122070312,203.91799926757812 66.87799835205078,192.6320037841797 C60.62300109863281,175.71600341796875 55.03900146484375,155.38600158691406 49.6609992980957,137.14300537109375 C42.30799865722656,112.1989974975586 37.13399887084961,92.56999969482422 33.667999267578125,70.89299774169922 C28.81599998474121,40.551998138427734 26.930999755859375,18.55500030517578 26.243999481201172,-6.10099983215332 C25.507999420166016,-32.5359992980957 35.47200012207031,-80.2490005493164 38.742000579833984,-87.66999816894531 C39.97800064086914,-91.86000061035156 43.85499954223633,-94.64199829101562 47.94900131225586,-94.4489974975586 C52.57400131225586,-94.23200225830078 56.49700164794922,-90.26300048828125 56.643001556396484,-85.28099822998047 C56.44300079345703,-82.14800262451172 56.077999114990234,-77.41600036621094 55.375999450683594,-71.68299865722656 C53.51499938964844,-56.487998962402344 50.483001708984375,-44.01900100708008 50.516998291015625,-44.012001037597656 C50.529998779296875,-44.00899887084961 50.99100112915039,-45.994998931884766 51.678001403808594,-49.43600082397461 C53.073001861572266,-56.42499923706055 59.70100021362305,-85.33599853515625 60.82699966430664,-101.73600006103516 C61.31800079345703,-108.89199829101562 61.62900161743164,-117.80999755859375 61.28099822998047,-128.1060028076172 C61.358001708984375,-134.33099365234375 66.06700134277344,-139.29100036621094 71.56900024414062,-139.66099548339844 C76.05799865722656,-139.96299743652344 80.48400115966797,-137.16900634765625 82.45800018310547,-132.66400146484375 C84.6719970703125,-123.53900146484375 86.9520034790039,-121.68000030517578 87.79000091552734,-109.38400268554688 C88.94200134277344,-92.48899841308594 87.69999694824219,-77.77899932861328 85.85800170898438,-66.14199829101562 C87.69999694824219,-77.77899932861328 88.94200134277344,-92.48899841308594 87.79000091552734,-109.38400268554688 C86.95099639892578,-121.68000030517578 84.06500244140625,-127.56600189208984 83.02200317382812,-138.4080047607422 C82.84700012207031,-144.07699584960938 86.91600036621094,-152.15899658203125 92.37799835205078,-152.67300415039062 C97.55999755859375,-153.16099548339844 102.46700286865234,-149.63699340820312 103.68699645996094,-144.4029998779297 C106.00900268554688,-137.1479949951172 109.11699676513672,-126.43199920654297 111.73699951171875,-113.22899627685547 C117.14600372314453,-85.97100067138672 117.03700256347656,-65.447998046875 117.05899810791016,-65.44999694824219 C117.08100128173828,-65.4520034790039 117.14199829101562,-86.02100372314453 111.73699951171875,-113.22899627685547 C109.45999908447266,-124.68900299072266 106.86499786376953,-134.0489959716797 104.91000366210938,-140.4810028076172 C106.16200256347656,-144.6529998779297 109.93699645996094,-147.4929962158203 114.06800079345703,-147.4759979248047 C117.61299896240234,-147.46099853515625 120.90399932861328,-145.343994140625 122.53600311279297,-142.04600524902344 C135.447998046875,-123.2770004272461 152.375,-98.22899627685547 159.97300720214844,-72.57499694824219 C165.19400024414062,-54.946998596191406 167.24000549316406,-38.15399932861328 168.1909942626953,-27.66699981689453 C169.14199829101562,-17.18000030517578 198.70599365234375,109.14800262451172 206.11500549316406,128.60899353027344 C211.11099243164062,141.73199462890625 218.8679962158203,162.75999450683594 223.49000549316406,175.6479949951172" fill-opacity="1">
</path>
</mask>
<path d="" fill-opacity="1">
</path>
<path d="" fill-opacity="1">
</path>
<path d="" fill-opacity="1">
</path>
<clipPath id="sg9uHssiBL">
</clipPath>
<filter id="SDYZEsEiYt" filterUnits="objectBoundingBox" x="0%" y="0%" width="100%" height="100%"><feColorMatrix type="matrix" color-interpolation-filters="sRGB" values="0 0 0 0 0.6784313917160034 0 0 0 0 0.12156862765550613 0 0 0 0 0.1764705926179886 0 0 0 1 0">
</feColorMatrix>
</filter>
<mask id="Ckta5x0rwS">
<path fill="#ffffff" clip-rule="nonzero" d=" M-94.59200286865234,20.261999130249023 C-96.72599792480469,9.888999938964844 -97.79100036621094,-5.686999797821045 -113.06400299072266,-22.33799934387207 C-122.45999908447266,-32.582000732421875 -132.8419952392578,-37.72100067138672 -139.1219940185547,-40.2239990234375 C-143.73399353027344,-50.922000885009766 -148.34800720214844,-61.619998931884766 -152.9600067138672,-72.31800079345703 C-156.8260040283203,-80.08799743652344 -165.8070068359375,-82.77799987792969 -171.81100463867188,-79.47599792480469 C-176.302001953125,-77.00599670410156 -178.86599731445312,-71.32499694824219 -178.01499938964844,-65.39800262451172 C-177.4499969482422,-46.417999267578125 -176.88600158691406,-27.43899917602539 -176.3209991455078,-8.458999633789062 C-176.16700744628906,3.1619999408721924 -175.5050048828125,23.597999572753906 -165.15199279785156,42.922000885009766 C-154.7989959716797,62.24599838256836 -136.83799743652344,80 -113.58000183105469,73.93299865722656 C-90.3219985961914,67.86599731445312 -92.45800018310547,30.635000228881836 -94.59200286865234,20.261999130249023" fill-opacity="1">
</path>
</mask>
<mask id="6K9Z8RWrWd">
<path fill="#ffffff" clip-rule="nonzero" d=" M-94.59200286865234,20.261999130249023 C-96.72599792480469,9.888999938964844 -97.79100036621094,-5.686999797821045 -113.06400299072266,-22.33799934387207 C-122.45999908447266,-32.582000732421875 -132.8419952392578,-37.72100067138672 -139.1219940185547,-40.2239990234375 C-143.73399353027344,-50.922000885009766 -148.34800720214844,-61.619998931884766 -152.9600067138672,-72.31800079345703 C-156.8260040283203,-80.08799743652344 -165.8070068359375,-82.77799987792969 -171.81100463867188,-79.47599792480469 C-176.302001953125,-77.00599670410156 -178.86599731445312,-71.32499694824219 -178.01499938964844,-65.39800262451172 C-177.4499969482422,-46.417999267578125 -176.88600158691406,-27.43899917602539 -176.3209991455078,-8.458999633789062 C-176.16700744628906,3.1619999408721924 -175.5050048828125,23.597999572753906 -165.15199279785156,42.922000885009766 C-154.7989959716797,62.24599838256836 -136.83799743652344,80 -113.58000183105469,73.93299865722656 C-90.3219985961914,67.86599731445312 -92.45800018310547,30.635000228881836 -94.59200286865234,20.261999130249023" fill-opacity="1">
</path>
</mask>
<filter id="e4p1lIfrQY" filterUnits="objectBoundingBox" x="0%" y="0%" width="100%" height="100%"><feColorMatrix type="matrix" color-interpolation-filters="sRGB" values="0 0 0 0 0.6784313917160034 0 0 0 0 0.12156862765550613 0 0 0 0 0.1764705926179886 0 0 0 1 0">
</feColorMatrix>
</filter>
<mask id="kixeXfxh3Y">
<path fill="#ffffff" clip-rule="nonzero" d=" M-37.909000396728516,-108.9010009765625 C-39.61199951171875,-113.4209976196289 -44.1510009765625,-116.07599639892578 -48.483001708984375,-115.38600158691406 C-53.124000549316406,-114.64700317382812 -56.69599914550781,-110.197998046875 -56.49399948120117,-105.10600280761719 C-57.40599822998047,-114.55599975585938 -58.665000915527344,-126.77200317382812 -60.369998931884766,-141.33599853515625 C-60.810001373291016,-147.3489990234375 -65.79100036621094,-151.99400329589844 -71.5459976196289,-152.05599975585938 C-77.56400299072266,-152.1199951171875 -82.75700378417969,-147.1510009765625 -82.9739990234375,-140.88499450683594 C-82.8949966430664,-145.4949951171875 -82.79499816894531,-150.06300354003906 -82.64700317382812,-154.53700256347656 C-82.19200134277344,-162.3489990234375 -88.39700317382812,-168.6529998779297 -95.22699737548828,-168.57200622558594 C-101.04199981689453,-168.5030059814453 -106.43000030517578,-163.81900024414062 -107.41200256347656,-157.34100341796875 C-109.56999969482422,-143.9530029296875 -111.38899993896484,-129.4459991455078 -112.61100006103516,-113.92900085449219 C-112.00700378417969,-123.4739990234375 -111.2509994506836,-132.7779998779297 -110.36900329589844,-141.83099365234375 C-110.85600280761719,-148.77099609375 -116.56400299072266,-153.89100646972656 -122.63999938964844,-153.71499633789062 C-127.58000183105469,-153.57200622558594 -132.12100219726562,-149.93800354003906 -133.7010040283203,-144.7010040283203 C-137.0959930419922,-133.4499969482422 -140.30799865722656,-121.20099639892578 -143.09300231933594,-108.01399993896484 C-146.74400329589844,-90.7239990234375 -153.718994140625,-49.99399948120117 -156.656005859375,-10.829999923706055 C-159.59300231933594,28.333999633789062 -189.92300415039062,175.9250030517578 -189.92300415039062,175.9250030517578 C-189.92300415039062,175.9250030517578 -54.180999755859375,204 -54.180999755859375,204 C-47.47100067138672,169.39199829101562 -40.7599983215332,134.7830047607422 -34.04999923706055,100.17500305175781 C-22.30699920654297,39.612998962402344 -22.086999893188477,24.541000366210938 -21.701000213623047,18.222999572753906 C-19.889999389648438,-11.406000137329102 -21.280000686645508,-54.95199966430664 -37.909000396728516,-108.9010009765625" fill-opacity="1">
</path>
</mask>
<filter id="ZO3mMUazdl" filterUnits="objectBoundingBox" x="0%" y="0%" width="100%" height="100%"><feColorMatrix type="matrix" color-interpolation-filters="sRGB" values="0 0 0 0 0.6784313917160034 0 0 0 0 0.12156862765550613 0 0 0 0 0.1764705926179886 0 0 0 1 0">
</feColorMatrix>
</filter>
<mask id="6erN9KfBVy">
<path fill="#ffffff" clip-rule="nonzero" d=" M212.0172119140625,174.88792419433594 C164.3282012939453,188.43092346191406 129.8322296142578,203.62428283691406 82.14323425292969,217.16729736328125 C79.05123901367188,205.88128662109375 77.34136199951172,209.04579162597656 74.2493667602539,197.75979614257812 C71.60877227783203,183.13973999023438 69.85729217529297,162.20489501953125 64.46559143066406,143.97789001464844 C57.09477996826172,119.05689239501953 54.782020568847656,80.57730102539062 51.3164176940918,58.93087387084961 C46.467979431152344,28.639738082885742 47.45766830444336,13.191264152526855 46.73369598388672,-11.42676067352295 C45.968055725097656,-37.80870819091797 54.79961395263672,-103.41747283935547 59.28763198852539,-110.1434555053711 C61.220157623291016,-114.05614471435547 65.50718688964844,-116.13200378417969 69.49506378173828,-115.23880767822266 C74.0007553100586,-114.23040008544922 77.17034912109375,-109.65763854980469 76.45724487304688,-104.73898315429688 C75.72293090820312,-101.69679260253906 75.56139373779297,-97.83982849121094 73.88674926757812,-92.33019256591797 C69.44770812988281,-77.726318359375 68.56270599365234,-78.63472747802734 68.59464263916016,-78.6218490600586 C68.60762023925781,-78.61690521240234 72.2410888671875,-85.41985321044922 73.50724029541016,-88.68090057373047 C76.07913208007812,-95.3048095703125 79.5138168334961,-104.2501449584961 83.43867492675781,-120.16375732421875 C85.15118408203125,-127.10731506347656 86.98937225341797,-135.81307983398438 88.41764068603516,-145.9854278564453 C89.56317138671875,-152.08584594726562 95.04177856445312,-156.1483917236328 100.50946807861328,-155.56544494628906 C104.96979522705078,-155.09036254882812 108.83736419677734,-151.58543395996094 110.0013427734375,-146.8216094970703 C110.6068115234375,-137.4785614013672 112.55123901367188,-135.25611877441406 111.26132202148438,-123.0351333618164 C109.4886474609375,-106.24412536621094 105.74055480957031,-92.0101089477539 101.93087005615234,-80.89682006835938 C105.74055480957031,-92.0101089477539 109.4886474609375,-106.24412536621094 111.26132202148438,-123.0351333618164 C112.55123901367188,-135.25611877441406 110.71351623535156,-141.53817749023438 111.5579833984375,-152.36207580566406 C112.36091613769531,-157.9600067138672 117.75597381591797,-165.1984100341797 123.20829010009766,-164.7639923095703 C128.38235473632812,-164.35171508789062 132.59616088867188,-160.04811096191406 132.89431762695312,-154.69754028320312 C133.92843627929688,-147.17239379882812 135.13795471191406,-136.11404418945312 135.44175720214844,-122.69602966308594 C136.0687255859375,-94.99457550048828 132.43287658691406,-74.8561019897461 132.45481872558594,-74.85416412353516 C132.4767608642578,-74.85223388671875 136.0735626220703,-95.04444885253906 135.44175720214844,-122.69602966308594 C135.17581176757812,-134.34231567382812 134.23548889160156,-143.9815673828125 133.4211883544922,-150.63487243652344 C135.3686065673828,-154.51702880859375 142.7554168701172,-154.1017303466797 146.80963134765625,-153.37522888183594 C150.2892303466797,-152.75181579589844 155.5894775390625,-148.58883666992188 158.8122100830078,-140.51177978515625 C168.2605438232422,-119.84901428222656 171.8442840576172,-91.74533081054688 174.9199981689453,-65.23045349121094 C177.00103759765625,-47.0110969543457 180.6125030517578,-16.356693267822266 181.6239013671875,-5.8354387283325195 C182.70094299316406,4.7520060539245605 191.43569946289062,78.12420654296875 195.76731872558594,98.49166107177734 C199.33631896972656,115.28138732910156 207.39520263671875,161.9999237060547 212.0172119140625,174.88792419433594" fill-opacity="1">
</path></mask></defs><g clip-path="url(#animationMask_ODtVUMyr7f)"><g filter="url(#ZO3mMUazdl)" mask="url(#6erN9KfBVy)" transform="matrix(-0.9913,0.1316,0.1316,0.9913,379.2311,416.6474)" opacity="1" style="user-select: none; display: none;"><g opacity="1" transform="matrix(0.5696,0,0,0.6449,108.656,24.865)"><path fill="rgb(0,0,0)" fill-opacity="1" d="M0 0 M500,-500 C500,-500 500,500 500,500 C500,500 -500,500 -500,500 C-500,500 -500,-500 -500,-500 C-500,-500 500,-500 500,-500z" style="display: none;"></path><path stroke-linecap="butt" stroke-linejoin="miter" fill-opacity="0" stroke-miterlimit="4" stroke="rgb(75,117,63)" stroke-opacity="1" stroke-width="1" d="M0 0 M500,-500 C500,-500 500,500 500,500 C500,500 -500,500 -500,500 C-500,500 -500,-500 -500,-500 C-500,-500 500,-500 500,-500z" style="display: none;"></path></g></g><g filter="url(#e4p1lIfrQY)" mask="url(#kixeXfxh3Y)" style="user-select: none; display: block;" transform="matrix(0.9995,0.0331,-0.0331,0.9995,410.4123,435.3232)" opacity="1"><g opacity="1" transform="matrix(1,0,0,1,0,0)"><path fill="rgb(0,0,0)" fill-opacity="1" d="M0 0 M500,-500 C500,-500 500,500 500,500 C500,500 -500,500 -500,500 C-500,500 -500,-500 -500,-500 C-500,-500 500,-500 500,-500z" style="display: block;"></path><path stroke-linecap="butt" stroke-linejoin="miter" fill-opacity="0" stroke-miterlimit="4" style="display: block;" stroke="rgb(75,117,63)" stroke-opacity="1" stroke-width="1" d="M0 0 M500,-500 C500,-500 500,500 500,500 C500,500 -500,500 -500,500 C-500,500 -500,-500 -500,-500 C-500,-500 500,-500 500,-500z"></path></g></g><g filter="url(#SDYZEsEiYt)" mask="url(#Ckta5x0rwS)" transform="matrix(0.9995,0.0331,-0.0331,0.9995,388.6886,438.8)" opacity="1" style="user-select: none; display: block;"><g opacity="1" transform="matrix(1,0,0,1,0,0)"><path fill="rgb(0,0,0)" fill-opacity="1" d="M0 0 M500,-500 C500,-500 500,500 500,500 C500,500 -500,500 -500,500 C-500,500 -500,-500 -500,-500 C-500,-500 500,-500 500,-500z" style="display: block;"></path><path stroke-linecap="butt" stroke-linejoin="miter" fill-opacity="0" stroke-miterlimit="4" stroke="rgb(75,117,63)" stroke-opacity="1" stroke-width="1" d="M0 0 M500,-500 C500,-500 500,500 500,500 C500,500 -500,500 -500,500 C-500,500 -500,-500 -500,-500 C-500,-500 500,-500 500,-500z" style="display: block;"></path></g></g><g transform="matrix(0.9999,0.0122,-0.0122,0.9999,389.5759,435.1022)" opacity="1" style="user-select: none; display: block;"><g fill="none" stroke-linecap="round" stroke-dashoffset="1" stroke="rgb(249,170,142)" stroke-width="5" opacity="1"><path d=" M-94.59200286865234,20.261999130249023 C-96.72599792480469,9.888999938964844 -97.79100036621094,-5.686999797821045 -113.06400299072266,-22.33799934387207 C-122.45999908447266,-32.582000732421875 -132.8419952392578,-37.72100067138672 -139.1219940185547,-40.2239990234375 C-143.73399353027344,-50.922000885009766 -148.34800720214844,-61.619998931884766 -152.9600067138672,-72.31800079345703 C-156.8260040283203,-80.08799743652344 -165.8070068359375,-82.77799987792969 -171.81100463867188,-79.47599792480469 C-176.302001953125,-77.00599670410156 -178.86599731445312,-71.32499694824219 -178.01499938964844,-65.39800262451172 C-177.4499969482422,-46.417999267578125 -176.88600158691406,-27.43899917602539 -176.3209991455078,-8.458999633789062 C-176.16700744628906,3.1619999408721924 -175.5050048828125,23.597999572753906 -165.15199279785156,42.922000885009766 C-154.7989959716797,62.24599838256836 -136.83799743652344,80 -113.58000183105469,73.93299865722656 C-90.3219985961914,67.86599731445312 -92.45800018310547,30.635000228881836 -94.59200286865234,20.261999130249023" stroke-dasharray="0 0 0 0 1 0.75 1 0.75 1 0.75 1 0.75 1 0.75 1 0.75 1 0.75 1 0.75 1 0.75 1 0.75 1 0.75 1 0.75 1 0.75 1 0.75 1 0.75 1 0.75 1 0.75 1 0.75 1 0.75 1 0.75 1 0.75 1 0.75 1 0.75 1 0.75 1 0.75 1 0.75 1 0.75 1 0.75 1 0.75 1 0.75 1 0.75 1 0.75 1 0.75 1 0.75 1 0.75 1 0.75 1 0.75 1 0.75 1 0.75 1 0.75 1 0.75 1 0.75 1 0.75 1 0.75 1 0.75 1 0.75 1 0.75 1 0.75 1 0.75 1 0.75 1 0.75 1 0.75 1 0.75 1 0.75 1 0.75 1 0.75 1 0.75 1 0.75 1 0.75 1 0.75 1 0.75 1 0.75 1 0.75 1 0.75 1 0.75 1 0.75 1 0.75 1 0.75 1 0.75 1 0.75 1 0.75 1 0.75 1 0.75 0 3901.5301513671875 0 0"></path></g></g><g transform="matrix(0.9995,0.0331,-0.0331,0.9995,388.6886,438.8)" opacity="1" style="user-select: none; display: block;"><g fill="none" stroke-linecap="round" stroke-dashoffset="1" stroke="rgb(249,170,142)" stroke-width="5" opacity="1"><path d=" M-89.32599639892578,-143.8209991455078 C-89.32599639892578,-143.8209991455078 -94.4260025024414,-123.35600280761719 -96.47699737548828,-94.59200286865234" stroke-dasharray="1 0.75"></path><path d=" M-61.231998443603516,-147.89300537109375 C-61.231998443603516,-147.89300537109375 -65.11499786376953,-122.5770034790039 -67.16600036621094,-93.81300354003906" stroke-dasharray="1 0.75"></path><path d=" M-34.64899826049805,-118.1449966430664 C-34.64899826049805,-118.1449966430664 -36.452999114990234,-100.36499786376953 -36.25400161743164,-79.10099792480469" stroke-dasharray="1 0.75"></path></g></g><g transform="matrix(1.9949,-0.1425,0.1425,1.9949,189.6021,588.1503)" opacity="1" style="user-select: none; display: block;"><g opacity="1" transform="matrix(1,0,0,1,45.225,21.625)"><path fill="rgb(248,170,142)" fill-opacity="1" d="M0 0 M43.698001861572266,2.4590001106262207 C43.698001861572266,2.4590001106262207 -38.321998596191406,-21.143999099731445 -38.321998596191406,-21.143999099731445 C-39.12900161743164,-21.375 -39.97800064086914,-20.905000686645508 -40.209999084472656,-20.099000930786133 C-40.209999084472656,-20.099000930786133 -44.74300003051758,-4.3480000495910645 -44.74300003051758,-4.3480000495910645 C-44.974998474121094,-3.5409998893737793 -44.505001068115234,-2.690999984741211 -43.698001861572266,-2.4590001106262207 C-43.698001861572266,-2.4590001106262207 38.321998596191406,21.14299964904785 38.321998596191406,21.14299964904785 C39.12799835205078,21.375 39.97800064086914,20.90399932861328 40.209999084472656,20.097999572753906 C40.209999084472656,20.097999572753906 44.742000579833984,4.3470001220703125 44.742000579833984,4.3470001220703125 C44.974998474121094,3.5399999618530273 44.505001068115234,2.690000057220459 43.698001861572266,2.4590001106262207z" style="display: block;"></path></g><g opacity="1" transform="matrix(1,0,0,1,78.616,30.783)"><path fill="rgb(172,31,44)" fill-opacity="1" d="M0 0 M2.990999937057495,0 C2.990999937057495,1.6510000228881836 1.6510000228881836,2.990000009536743 -0.0010000000474974513,2.990000009536743 C-1.6519999504089355,2.990000009536743 -2.990999937057495,1.6510000228881836 -2.990999937057495,0 C-2.990999937057495,-1.6510000228881836 -1.6519999504089355,-2.990000009536743 -0.0010000000474974513,-2.990000009536743 C1.6510000228881836,-2.990000009536743 2.990999937057495,-1.6510000228881836 2.990999937057495,0z" style="display: block;"></path></g></g><g></g><g filter="url(#T0KoPTpHEh)" mask="url(#dzXHTTzWHp)" style="user-select: none; display: none;" transform="matrix(0.9844,0.1757,-0.1757,0.9844,441.6856,404.541)" opacity="1"><g opacity="1" transform="matrix(0.5696,0,0,0.6449,108.656,24.865)"><path fill="rgb(0,0,0)" fill-opacity="1" d="M0 0 M500,-500 C500,-500 500,500 500,500 C500,500 -500,500 -500,500 C-500,500 -500,-500 -500,-500 C-500,-500 500,-500 500,-500z" style="display: none;"></path><path stroke-linecap="butt" stroke-linejoin="miter" fill-opacity="0" stroke-miterlimit="4" stroke="rgb(75,117,63)" stroke-opacity="1" stroke-width="1" d="M0 0 M500,-500 C500,-500 500,500 500,500 C500,500 -500,500 -500,500 C-500,500 -500,-500 -500,-500 C-500,-500 500,-500 500,-500z" style="display: none;"></path></g></g><g transform="matrix(0.9844,0.1757,-0.1757,0.9844,441.6856,404.541)" opacity="1" style="user-select: none; display: none;"><g fill="none" stroke-linecap="round" stroke-dashoffset="1" stroke="rgb(173,31,45)" stroke-width="5" opacity="1"><path d=" M58.0629997253418,-85.13099670410156 C58.0629997253418,-85.13099670410156 56.55799865722656,-64.22200012207031 50.93199920654297,-37.900001525878906" stroke-dasharray="1 0.75"></path><path d=" M83.572998046875,-126.75800323486328 C83.572998046875,-126.75800323486328 95.197998046875,-84.45600128173828 89.39399719238281,-52.43299865722656" stroke-dasharray="1 0.75"></path><path d=" M104.15599822998047,-138.3719940185547 C104.15599822998047,-138.3719940185547 116.36299896240234,-108.30999755859375 117.29399871826172,-65.1050033569336" stroke-dasharray="1 0.75"></path></g></g><g filter="url(#hQHUxi8RGW)" mask="url(#kVu6XlRHor)" style="user-select: none; display: block;" transform="matrix(0.9778,0.2094,-0.2094,0.9778,444.8651,395.9437)" opacity="1"><g opacity="1" transform="matrix(0.7405,0,0,0.7905,108.656,24.865)"><path fill="rgb(0,0,0)" fill-opacity="1" d="M0 0 M500,-500 C500,-500 500,500 500,500 C500,500 -500,500 -500,500 C-500,500 -500,-500 -500,-500 C-500,-500 500,-500 500,-500z" style="display: block;"></path><path stroke-linecap="butt" stroke-linejoin="miter" fill-opacity="0" stroke-miterlimit="4" stroke="rgb(75,117,63)" stroke-opacity="1" stroke-width="1" d="M0 0 M500,-500 C500,-500 500,500 500,500 C500,500 -500,500 -500,500 C-500,500 -500,-500 -500,-500 C-500,-500 500,-500 500,-500z" style="display: block;"></path></g></g><g transform="matrix(0.9532,0.3023,-0.3023,0.9532,454.3452,346.1907)" opacity="1" style="user-select: none; display: block;"><g fill="none" stroke-linecap="round" stroke-dashoffset="1" stroke="rgb(173,31,45)" stroke-width="5" opacity="1"><path d=" M56.41400146484375,-47.27199935913086 C56.41400146484375,-47.27199935913086 54.569000244140625,-24.990999221801758 61.04100036621094,-1.0989999771118164" stroke-dasharray="1 0.75"></path><path d=" M78.88099670410156,-92.85399627685547 C78.88099670410156,-92.85399627685547 82.12799835205078,-44.3390007019043 89.79499816894531,-9.121000289916992" stroke-dasharray="1 0.75"></path><path d=" M109.29399871826172,-100.50900268554688 C109.29399871826172,-100.50900268554688 115.59600067138672,-51.28099822998047 124.66200256347656,-17.66900062561035" stroke-dasharray="1 0.75"></path></g></g><g filter="url(#RzJfmO39p6)" mask="url(#kchYzjwQFH)" style="user-select: none; display: block;" transform="matrix(0.9765,0.2159,-0.2191,0.991,458.4594,428.7976)" opacity="1"><g opacity="1" transform="matrix(0.5696,0,0,0.6449,108.656,24.865)"><path fill="rgb(0,0,0)" fill-opacity="1" d="M0 0 M500,-500 C500,-500 500,500 500,500 C500,500 -500,500 -500,500 C-500,500 -500,-500 -500,-500 C-500,-500 500,-500 500,-500z" style="display: block;"></path><path stroke-linecap="butt" stroke-linejoin="miter" fill-opacity="0" stroke-miterlimit="4" stroke="rgb(75,117,63)" stroke-opacity="1" stroke-width="1" d="M0 0 M500,-500 C500,-500 500,500 500,500 C500,500 -500,500 -500,500 C-500,500 -500,-500 -500,-500 C-500,-500 500,-500 500,-500z" style="display: block;"></path></g></g><g transform="matrix(1.9664,0.3651,-0.3651,1.9664,469.2523,569.3334)" opacity="1" style="user-select: none; display: block;"><g opacity="1" transform="matrix(1,0,0,1,44.036,20.801)"><path fill="rgb(172,31,44)" fill-opacity="1" d="M0 0 M42.3380012512207,-12.57699966430664 C42.3380012512207,-12.57699966430664 42.3380012512207,-12.57699966430664 42.3380012512207,-12.57699966430664 C40.888999938964844,-17.6299991607666 37.14400100708008,-20.551000595092773 32.090999603271484,-19.101999282836914 C32.090999603271484,-19.101999282836914 -37.33700180053711,0.8040000200271606 -37.33700180053711,0.8040000200271606 C-42.39099884033203,2.253000020980835 -43.7859992980957,7.52400016784668 -42.33700180053711,12.576000213623047 C-40.888999938964844,17.6299991607666 -37.143001556396484,20.552000045776367 -32.090999603271484,19.10300064086914 C-32.090999603271484,19.10300064086914 37.3380012512207,-0.8050000071525574 37.3380012512207,-0.8050000071525574 C42.39099884033203,-2.253000020980835 43.7859992980957,-7.52400016784668 42.3380012512207,-12.57699966430664z" style="display: block;"></path></g><g opacity="1" transform="matrix(1,0,0,1,14.29,33.3)"><path stroke-linecap="round" stroke-linejoin="round" fill-opacity="0" stroke="rgb(246,135,68)" stroke-opacity="1" stroke-width="2" d="M0 0 M-1.812000036239624,-3.23799991607666 C-1.812000036239624,-3.23799991607666 1.812000036239624,3.23799991607666 1.812000036239624,3.23799991607666" style="display: block;"></path></g><g opacity="1" transform="matrix(1,0,0,1,38.209,18.059)"><path stroke-linecap="round" stroke-linejoin="round" fill-opacity="0" stroke="rgb(246,135,68)" stroke-opacity="1" stroke-width="2" d="M0 0 M-2.499000072479248,-2.742000102996826 C-2.499000072479248,-2.742000102996826 2.499000072479248,2.742000102996826 2.499000072479248,2.742000102996826" style="display: block;"></path></g><g opacity="1" transform="matrix(1,0,0,1,55.275,20.801)"><path stroke-linecap="round" stroke-linejoin="round" fill-opacity="0" stroke="rgb(246,135,68)" stroke-opacity="1" stroke-width="2" d="M0 0 M1.5950000286102295,-3.3499999046325684 C1.5950000286102295,-3.3499999046325684 -1.5950000286102295,3.3499999046325684 -1.5950000286102295,3.3499999046325684" style="display: block;"></path></g><g opacity="1" transform="matrix(1,0,0,1,63.915,8.799)"><path stroke-linecap="round" stroke-linejoin="round" fill-opacity="0" stroke="rgb(246,135,68)" stroke-opacity="1" stroke-width="2" d="M0 0 M-2.8940000534057617,-2.322000026702881 C-2.8940000534057617,-2.322000026702881 2.8940000534057617,2.322000026702881 2.8940000534057617,2.322000026702881" style="display: block;"></path></g><g opacity="1" transform="matrix(1,0,0,1,82.652,12.889)"><path stroke-linecap="round" stroke-linejoin="round" fill-opacity="0" stroke="rgb(246,135,68)" stroke-opacity="1" stroke-width="2" d="M0 0 M-3.0769999027252197,-1.7690000534057617 C-3.0769999027252197,-1.7690000534057617 3.0769999027252197,1.7690000534057617 3.0769999027252197,1.7690000534057617" style="display: block;"></path></g><g opacity="1" transform="matrix(1,0,0,1,71.38,20.339)"><path stroke-linecap="round" stroke-linejoin="round" fill-opacity="0" stroke="rgb(246,135,68)" stroke-opacity="1" stroke-width="2" d="M0 0 M-2.318000078201294,-1.8589999675750732 C-2.318000078201294,-1.8589999675750732 2.318000078201294,1.8589999675750732 2.318000078201294,1.8589999675750732" style="display: block;"></path></g><g opacity="1" transform="matrix(1,0,0,1,30.439,31.588)"><path stroke-linecap="round" stroke-linejoin="round" fill-opacity="0" stroke="rgb(246,135,68)" stroke-opacity="1" stroke-width="2" d="M0 0 M-1.3919999599456787,3.01200008392334 C-1.3919999599456787,3.01200008392334 1.3919999599456787,-3.01200008392334 1.3919999599456787,-3.01200008392334" style="display: block;"></path></g><g opacity="1" transform="matrix(1,0,0,1,17.965,21.605)"><path stroke-linecap="round" stroke-linejoin="round" fill-opacity="0" stroke="rgb(246,135,68)" stroke-opacity="1" stroke-width="2" d="M0 0 M2.8010001182556152,1.781000018119812 C2.8010001182556152,1.781000018119812 -2.8010001182556152,-1.781000018119812 -2.8010001182556152,-1.781000018119812" style="display: block;"></path></g></g><g></g><g clip-path="url(#cp_B3u6jlpH)" transform="matrix(0.9563,-0.2924,0.2924,0.9563,223.333,151.6482)" opacity="1" style="display: none;"><g transform="matrix(0.2079,0.9781,-0.9781,0.2079,92.1206,454.8275)" opacity="1" style="user-select: none; display: none;"><g opacity="1" transform="matrix(1,0,0,1,0,0)"><path fill="rgb(255,0,0)" fill-opacity="1" d="M0 0 M-304.3529968261719,-261.9649963378906 C-304.3529968261719,-261.9649963378906 -288.5790100097656,-208.6219940185547 -288.5790100097656,-208.6219940185547" style="display: none;"></path><path stroke-linecap="round" stroke-linejoin="miter" fill-opacity="0" stroke-miterlimit="4" stroke="rgb(246,136,68)" stroke-opacity="1" stroke-width="5" d="M0 0 M-304.3529968261719,-261.9649963378906 C-304.3529968261719,-261.9649963378906 -288.5790100097656,-208.6219940185547 -288.5790100097656,-208.6219940185547" style="display: none;"></path></g></g><g transform="matrix(0.6018,0.7986,-0.7986,0.6018,208.8662,443.2418)" opacity="1" style="user-select: none; display: none;"><g opacity="1" transform="matrix(1,0,0,1,0,0)"><path fill="rgb(255,0,0)" fill-opacity="1" d="M0 0 M-304.3529968261719,-261.9649963378906 C-304.3529968261719,-261.9649963378906 -288.5790100097656,-208.6219940185547 -288.5790100097656,-208.6219940185547" style="display: none;"></path><path stroke-linecap="round" stroke-linejoin="miter" fill-opacity="0" stroke-miterlimit="4" stroke="rgb(246,136,68)" stroke-opacity="1" stroke-width="5" d="M0 0 M-304.3529968261719,-261.9649963378906 C-304.3529968261719,-261.9649963378906 -288.5790100097656,-208.6219940185547 -288.5790100097656,-208.6219940185547" style="display: none;"></path></g></g><g transform="matrix(0.891,0.454,-0.454,0.891,313.2588,381.0522)" opacity="1" style="user-select: none; display: none;"><g opacity="1" transform="matrix(1,0,0,1,0,0)"><path fill="rgb(255,0,0)" fill-opacity="1" d="M0 0 M-304.3529968261719,-261.9649963378906 C-304.3529968261719,-261.9649963378906 -288.5790100097656,-208.6219940185547 -288.5790100097656,-208.6219940185547" style="display: none;"></path><path stroke-linecap="round" stroke-linejoin="miter" fill-opacity="0" stroke-miterlimit="4" stroke="rgb(246,136,68)" stroke-opacity="1" stroke-width="5" d="M0 0 M-304.3529968261719,-261.9649963378906 C-304.3529968261719,-261.9649963378906 -288.5790100097656,-208.6219940185547 -288.5790100097656,-208.6219940185547" style="display: none;"></path></g></g><g transform="matrix(0.891,-0.454,0.454,0.891,398.1378,150.1404)" opacity="1" style="user-select: none; display: none;"><g opacity="1" transform="matrix(1,0,0,1,0,0)"><path fill="rgb(255,0,0)" fill-opacity="1" d="M0 0 M-304.3529968261719,-261.9649963378906 C-304.3529968261719,-261.9649963378906 -288.5790100097656,-208.6219940185547 -288.5790100097656,-208.6219940185547" style="display: none;"></path><path stroke-linecap="round" stroke-linejoin="miter" fill-opacity="0" stroke-miterlimit="4" stroke="rgb(246,136,68)" stroke-opacity="1" stroke-width="5" d="M0 0 M-304.3529968261719,-261.9649963378906 C-304.3529968261719,-261.9649963378906 -288.5790100097656,-208.6219940185547 -288.5790100097656,-208.6219940185547" style="display: none;"></path></g></g><g transform="matrix(1,0,0,1,384,276)" opacity="1" style="user-select: none; display: none;"><g opacity="1" transform="matrix(1,0,0,1,0,0)"><path fill="rgb(255,0,0)" fill-opacity="1" d="M0 0 M-304.3529968261719,-261.9649963378906 C-304.3529968261719,-261.9649963378906 -288.5790100097656,-208.6219940185547 -288.5790100097656,-208.6219940185547" style="display: none;"></path><path stroke-linecap="round" stroke-linejoin="miter" fill-opacity="0" stroke-miterlimit="4" stroke="rgb(246,136,68)" stroke-opacity="1" stroke-width="5" d="M0 0 M-304.3529968261719,-261.9649963378906 C-304.3529968261719,-261.9649963378906 -288.5790100097656,-208.6219940185547 -288.5790100097656,-208.6219940185547" style="display: none;"></path></g></g></g><g clip-path="url(#cp_d00ONReF)" transform="matrix(0.9563,-0.2924,0.2924,0.9563,223.333,151.6482)" opacity="1" style="display: block;"><g transform="matrix(0.2079,0.9781,-0.9781,0.2079,92.1206,454.8275)" opacity="1" style="user-select: none; display: block;">
<g opacity="1" transform="matrix(1,0,0,1,0,0)"><path fill="rgb(255,0,0)" fill-opacity="1" d="M0 0 M-304.3529968261719,-261.9649963378906 C-304.3529968261719,-261.9649963378906 -288.5790100097656,-208.6219940185547 -288.5790100097656,-208.6219940185547" style="display: block;"></path><path stroke-linecap="round" stroke-linejoin="miter" fill-opacity="0" stroke-miterlimit="4" stroke="rgb(246,136,68)" stroke-opacity="1" stroke-width="5" d="M0 0 M-304.3529968261719,-261.9649963378906 C-304.3529968261719,-261.9649963378906 -288.5790100097656,-208.6219940185547 -288.5790100097656,-208.6219940185547" style="display: block;"></path></g></g><g transform="matrix(0.6018,0.7986,-0.7986,0.6018,208.8662,443.2418)" opacity="1" style="user-select: none; display: block;"><g opacity="1" transform="matrix(1,0,0,1,0,0)"><path fill="rgb(255,0,0)" fill-opacity="1" d="M0 0 M-304.3529968261719,-261.9649963378906 C-304.3529968261719,-261.9649963378906 -288.5790100097656,-208.6219940185547 -288.5790100097656,-208.6219940185547" style="display: block;"></path><path stroke-linecap="round" stroke-linejoin="miter" fill-opacity="0" stroke-miterlimit="4" stroke="rgb(246,136,68)" stroke-opacity="1" stroke-width="5" d="M0 0 M-304.3529968261719,-261.9649963378906 C-304.3529968261719,-261.9649963378906 -288.5790100097656,-208.6219940185547 -288.5790100097656,-208.6219940185547" style="display: block;"></path></g></g><g transform="matrix(0.891,0.454,-0.454,0.891,313.2588,381.0522)" opacity="1" style="user-select: none; display: block;"><g opacity="1" transform="matrix(1,0,0,1,0,0)"><path fill="rgb(255,0,0)" fill-opacity="1" d="M0 0 M-304.3529968261719,-261.9649963378906 C-304.3529968261719,-261.9649963378906 -288.5790100097656,-208.6219940185547 -288.5790100097656,-208.6219940185547" style="display: block;"></path><path stroke-linecap="round" stroke-linejoin="miter" fill-opacity="0" stroke-miterlimit="4" stroke="rgb(246,136,68)" stroke-opacity="1" stroke-width="5" d="M0 0 M-304.3529968261719,-261.9649963378906 C-304.3529968261719,-261.9649963378906 -288.5790100097656,-208.6219940185547 -288.5790100097656,-208.6219940185547" style="display: block;"></path></g></g><g transform="matrix(0.891,-0.454,0.454,0.891,398.1378,150.1404)" opacity="1" style="user-select: none; display: block;"><g opacity="1" transform="matrix(1,0,0,1,0,0)"><path fill="rgb(255,0,0)" fill-opacity="1" d="M0 0 M-304.3529968261719,-261.9649963378906 C-304.3529968261719,-261.9649963378906 -288.5790100097656,-208.6219940185547 -288.5790100097656,-208.6219940185547" style="display: block;"></path><path stroke-linecap="round" stroke-linejoin="miter" fill-opacity="0" stroke-miterlimit="4" stroke="rgb(246,136,68)" stroke-opacity="1" stroke-width="5" d="M0 0 M-304.3529968261719,-261.9649963378906 C-304.3529968261719,-261.9649963378906 -288.5790100097656,-208.6219940185547 -288.5790100097656,-208.6219940185547" style="display: block;"></path></g></g><g transform="matrix(1,0,0,1,384,276)" opacity="1" style="user-select: none; display: block;"><g opacity="1" transform="matrix(1,0,0,1,0,0)"><path fill="rgb(255,0,0)" fill-opacity="1" d="M0 0 M-304.3529968261719,-261.9649963378906 C-304.3529968261719,-261.9649963378906 -288.5790100097656,-208.6219940185547 -288.5790100097656,-208.6219940185547" style="display: block;"></path><path stroke-linecap="round" stroke-linejoin="miter" fill-opacity="0" stroke-miterlimit="4" stroke="rgb(246,136,68)" stroke-opacity="1" stroke-width="5" d="M0 0 M-304.3529968261719,-261.9649963378906 C-304.3529968261719,-261.9649963378906 -288.5790100097656,-208.6219940185547 -288.5790100097656,-208.6219940185547" style="display: block;"></path></g></g></g><g clip-path="url(#cp_39K6cmtg)" transform="matrix(1,0,0,1,0,50)" opacity="1" style="display: none;"><g filter="url(#q4ZaMaQ7cL)" mask="url(#YAReeHin6Y)" style="user-select: none; display: none;" transform="matrix(-0.9483,-0.3174,-0.3174,0.9483,276.8901,464.6678)" opacity="1"><g opacity="1" transform="matrix(0.5696,0,0,0.6449,108.656,24.865)"><path fill="rgb(0,0,0)" fill-opacity="1" d="M0 0 M500,-500 C500,-500 500,500 500,500 C500,500 -500,500 -500,500 C-500,500 -500,-500 -500,-500 C-500,-500 500,-500 500,-500z" style="display: none;"></path><path stroke-linecap="butt" stroke-linejoin="miter" fill-opacity="0" stroke-miterlimit="4" stroke="rgb(75,117,63)" stroke-opacity="1" stroke-width="1" d="M0 0 M500,-500 C500,-500 500,500 500,500 C500,500 -500,500 -500,500 C-500,500 -500,-500 -500,-500 C-500,-500 500,-500 500,-500z" style="display: none;"></path></g></g><g filter="url(#bRNFlMynKK)" mask="url(#zKuxDsJpR9)" style="user-select: none; display: none;" transform="matrix(0.9759,0.2184,-0.2184,0.9759,308.9905,443.2184)" opacity="1"><g opacity="1" transform="matrix(1,0,0,1,0,0)"><path fill="rgb(0,0,0)" fill-opacity="1" d="M0 0 M500,-500 C500,-500 500,500 500,500 C500,500 -500,500 -500,500 C-500,500 -500,-500 -500,-500 C-500,-500 500,-500 500,-500z" style="display: none;"></path><path stroke-linecap="butt" stroke-linejoin="miter" fill-opacity="0" stroke-miterlimit="4" stroke="rgb(75,117,63)" stroke-opacity="1" stroke-width="1" d="M0 0 M500,-500 C500,-500 500,500 500,500 C500,500 -500,500 -500,500 C-500,500 -500,-500 -500,-500 C-500,-500 500,-500 500,-500z" style="display: none;"></path></g></g><g filter="url(#XDr3PAE2IZ)" mask="url(#bd7cxNWyQp)" style="user-select: none; display: none;" transform="matrix(0.3379,0.9412,-0.9412,0.3379,195.7619,590.8071)" opacity="1"><g opacity="1" transform="matrix(1,0,0,1,0,0)"><path fill="rgb(0,0,0)" fill-opacity="1" d="M0 0 M500,-500 C500,-500 500,500 500,500 C500,500 -500,500 -500,500 C-500,500 -500,-500 -500,-500 C-500,-500 500,-500 500,-500z" style="display: none;"></path><path stroke-linecap="butt" stroke-linejoin="miter" fill-opacity="0" stroke-miterlimit="4" stroke="rgb(75,117,63)" stroke-opacity="1" stroke-width="1" d="M0 0 M500,-500 C500,-500 500,500 500,500 C500,500 -500,500 -500,500 C-500,500 -500,-500 -500,-500 C-500,-500 500,-500 500,-500z" style="display: none;"></path></g></g><g style="user-select: none; display: none;" transform="matrix(0.3575,0.9339,-0.9339,0.3575,199.5263,590.2681)" opacity="1"><g fill="none" stroke-linecap="round" stroke-dashoffset="1" stroke="rgb(249,170,142)" stroke-width="5" opacity="1"><path d=" M-84.26699829101562,43.90700149536133 C-84.46600341796875,33.319000244140625 -89.39099884033203,23.398000717163086 -101.35700225830078,4.232999801635742 C-108.71900177001953,-7.558000087738037 -117.98400115966797,-14.51099967956543 -123.69999694824219,-18.121000289916992 C-126.2760009765625,-29.482999801635742 -128.8520050048828,-40.84400177001953 -131.42799377441406,-52.20600128173828 C-133.80599975585938,-60.553001403808594 -142.14199829101562,-64.84300231933594 -148.6490020751953,-62.69499969482422 C-153.51600646972656,-61.0890007019043 -157.07699584960938,-55.972999572753906 -157.3260040283203,-49.9900016784668 C-160.24600219726562,-31.22800064086914 -161.7030029296875,-21.93199920654297 -162.3280029296875,-1.3930000066757202 C-161.31100463867188,23.77400016784668 -162.4429931640625,37.71799850463867 -152.08999633789062,57.04199981689453 C-141.73699951171875,76.36599731445312 -130.16600036621094,88.16899871826172 -106.90799713134766,82.10199737548828 C-83.6500015258789,76.03500366210938 -84.06800079345703,54.494998931884766 -84.26699829101562,43.90700149536133" stroke-dasharray="0 0 0 0 1 0.75 1 0.75 1 0.75 1 0.75 1 0.75 1 0.75 1 0.75 1 0.75 1 0.75 1 0.75 1 0.75 1 0.75 1 0.75 1 0.75 1 0.75 1 0.75 1 0.75 1 0.75 1 0.75 1 0.75 1 0.75 1 0.75 1 0.75 1 0.75 1 0.75 1 0.75 1 0.75 1 0.75 1 0.75 1 0.75 1 0.75 1 0.75 1 0.75 1 0.75 1 0.75 1 0.75 1 0.75 1 0.75 1 0.75 1 0.75 1 0.75 1 0.75 1 0.75 1 0.75 1 0.75 1 0.75 1 0.75 1 0.75 1 0.75 1 0.75 1 0.75 1 0.75 1 0.75 1 0.75 1 0.75 1 0.75 1 0.75 1 0.75 1 0.75 1 0.75 1 0.75 1 0.75 1 0.75 1 0.75 1 0.75 1 0.75 1 0.75 1 0.75 0 3640.9820556640625 0 0"></path></g></g><g style="user-select: none; display: none;" transform="matrix(0.3823,0.924,-0.924,0.3823,183.2836,558.5223)" opacity="1"><g fill="none" stroke-linecap="round" stroke-dashoffset="1" stroke="rgb(249,170,142)" stroke-width="5" opacity="1"><path d=" M-98.0403060913086,-139.74009704589844 C-98.0403060913086,-139.74009704589844 -105.63079833984375,-113.62068176269531 -107.45989227294922,-85.15311431884766" stroke-dasharray="1 0.75"></path><path d=" M-82.7002182006836,-127.42556762695312 C-82.7002182006836,-127.42556762695312 -87.45000457763672,-112.60951232910156 -88.81851959228516,-84.00428771972656" stroke-dasharray="1 0.75"></path><path d=" M-64.99752044677734,-107.3976058959961 C-64.99752044677734,-107.3976058959961 -66.07090759277344,-97.45375061035156 -61.06489944458008,-79.23872375488281" stroke-dasharray="1 0.75"></path></g></g><g transform="matrix(1.826,0.816,-0.816,1.826,16.6298,525.5374)" opacity="1" style="user-select: none; display: none;"><g opacity="1" transform="matrix(1,0,0,1,45.225,21.625)"><path fill="rgb(248,170,142)" fill-opacity="1" d="M0 0 M43.698001861572266,2.4590001106262207 C43.698001861572266,2.4590001106262207 -38.321998596191406,-21.143999099731445 -38.321998596191406,-21.143999099731445 C-39.12900161743164,-21.375 -39.97800064086914,-20.905000686645508 -40.209999084472656,-20.099000930786133 C-40.209999084472656,-20.099000930786133 -44.74300003051758,-4.3480000495910645 -44.74300003051758,-4.3480000495910645 C-44.974998474121094,-3.5409998893737793 -44.505001068115234,-2.690999984741211 -43.698001861572266,-2.4590001106262207 C-43.698001861572266,-2.4590001106262207 38.321998596191406,21.14299964904785 38.321998596191406,21.14299964904785 C39.12799835205078,21.375 39.97800064086914,20.90399932861328 40.209999084472656,20.097999572753906 C40.209999084472656,20.097999572753906 44.742000579833984,4.3470001220703125 44.742000579833984,4.3470001220703125 C44.974998474121094,3.5399999618530273 44.505001068115234,2.690000057220459 43.698001861572266,2.4590001106262207z" style="display: none;"></path></g><g opacity="1" transform="matrix(1,0,0,1,78.616,30.783)"><path fill="rgb(172,31,44)" fill-opacity="1" d="M0 0 M2.990999937057495,0 C2.990999937057495,1.6510000228881836 1.6510000228881836,2.990000009536743 -0.0010000000474974513,2.990000009536743 C-1.6519999504089355,2.990000009536743 -2.990999937057495,1.6510000228881836 -2.990999937057495,0 C-2.990999937057495,-1.6510000228881836 -1.6519999504089355,-2.990000009536743 -0.0010000000474974513,-2.990000009536743 C1.6510000228881836,-2.990000009536743 2.990999937057495,-1.6510000228881836 2.990999937057495,0z" style="display: none;"></path></g></g><g style="display: none;"></g><g filter="url(#Nzv7pVbpdm)" mask="url(#IiYGA8yaRo)" style="user-select: none; display: none;" transform="matrix(0.8212,-0.5706,0.5706,0.8212,450.0998,547.9979)" opacity="1"><g opacity="1" transform="matrix(0.5696,0,0,0.6449,108.656,24.865)"><path fill="rgb(0,0,0)" fill-opacity="1" d="M0 0 M500,-500 C500,-500 500,500 500,500 C500,500 -500,500 -500,500 C-500,500 -500,-500 -500,-500 C-500,-500 500,-500 500,-500z" style="display: none;"></path><path stroke-linecap="butt" stroke-linejoin="miter" fill-opacity="0" stroke-miterlimit="4" stroke="rgb(75,117,63)" stroke-opacity="1" stroke-width="1" d="M0 0 M500,-500 C500,-500 500,500 500,500 C500,500 -500,500 -500,500 C-500,500 -500,-500 -500,-500 C-500,-500 500,-500 500,-500z" style="display: none;"></path></g></g><g transform="matrix(0.8212,-0.5706,0.5706,0.8212,450.0998,547.9979)" opacity="1" style="user-select: none; display: none;"><g fill="none" stroke-linecap="round" stroke-dashoffset="1" stroke="rgb(173,31,45)" stroke-width="5" opacity="1"><path d=" M-3.190133571624756,17.962303161621094 C-3.190133571624756,17.962303161621094 14.141460418701172,27.945884704589844 20.394140243530273,48.3532600402832" stroke-dasharray="1 0.75"></path><path d=" M-11.531455039978027,-15.648486137390137 C-11.531455039978027,-15.648486137390137 16.468433380126953,-4.834075927734375 30.78439712524414,14.918349266052246" stroke-dasharray="1 0.75"></path><path d=" M1.0812318325042725,-32.726959228515625 C1.0812318325042725,-32.726959228515625 35.139068603515625,-24.655256271362305 50.245399475097656,-3.5906026363372803" stroke-dasharray="1 0.75"></path></g></g><g filter="url(#CCFMs5cOlC)" mask="url(#cuVr3VOrn8)" style="user-select: none; display: none;" transform="matrix(0.8679,-0.4967,0.4967,0.8679,432.97,521.4232)" opacity="1"><g opacity="1" transform="matrix(0.7405,0,0,0.7905,108.656,24.865)"><path fill="rgb(0,0,0)" fill-opacity="1" d="M0 0 M500,-500 C500,-500 500,500 500,500 C500,500 -500,500 -500,500 C-500,500 -500,-500 -500,-500 C-500,-500 500,-500 500,-500z" style="display: none;"></path><path stroke-linecap="butt" stroke-linejoin="miter" fill-opacity="0" stroke-miterlimit="4" stroke="rgb(75,117,63)" stroke-opacity="1" stroke-width="1" d="M0 0 M500,-500 C500,-500 500,500 500,500 C500,500 -500,500 -500,500 C-500,500 -500,-500 -500,-500 C-500,-500 500,-500 500,-500z" style="display: none;"></path></g></g><g transform="matrix(0.9116,-0.4111,0.4111,0.9116,406.8234,478.0459)" opacity="1" style="user-select: none; display: none;"><g fill="none" stroke-linecap="round" stroke-dashoffset="1" stroke="rgb(173,31,45)" stroke-width="5" opacity="1"><path d=" M57.25,-45.5 C57.25,-45.5 61.75,-1.5 61.75,-1.5" stroke-dasharray="1 0.75"></path><path d=" M81.5,-90.5 C81.5,-90.5 89,-37.5 93.5,-18" stroke-dasharray="1 0.75"></path><path d=" M111.25,-99 C111.25,-99 120.75,-51 123.25,-26.5" stroke-dasharray="1 0.75"></path></g></g><g filter="url(#jKrQPDQl1J)" mask="url(#dOv237JN5l)" style="user-select: none; display: none;" transform="matrix(-0.0035,-1,1.0149,-0.0035,539.7928,648.9465)" opacity="1"><g opacity="1" transform="matrix(0.5696,0,0,0.6449,108.656,24.865)"><path fill="rgb(0,0,0)" fill-opacity="1" d="M0 0 M500,-500 C500,-500 500,500 500,500 C500,500 -500,500 -500,500 C-500,500 -500,-500 -500,-500 C-500,-500 500,-500 500,-500z" style="display: none;"></path><path stroke-linecap="butt" stroke-linejoin="miter" fill-opacity="0" stroke-miterlimit="4" stroke="rgb(75,117,63)" stroke-opacity="1" stroke-width="1" d="M0 0 M500,-500 C500,-500 500,500 500,500 C500,500 -500,500 -500,500 C-500,500 -500,-500 -500,-500 C-500,-500 500,-500 500,-500z" style="display: none;"></path></g></g><g transform="matrix(1.6424,-1.1412,1.1412,1.6424,592.9401,643.2644)" opacity="1" style="user-select: none; display: none;"><g opacity="1" transform="matrix(1,0,0,1,44.036,20.801)"><path fill="rgb(172,31,44)" fill-opacity="1" d="M0 0 M42.3380012512207,-12.57699966430664 C42.3380012512207,-12.57699966430664 42.3380012512207,-12.57699966430664 42.3380012512207,-12.57699966430664 C40.888999938964844,-17.6299991607666 37.14400100708008,-20.551000595092773 32.090999603271484,-19.101999282836914 C32.090999603271484,-19.101999282836914 -37.33700180053711,0.8040000200271606 -37.33700180053711,0.8040000200271606 C-42.39099884033203,2.253000020980835 -43.7859992980957,7.52400016784668 -42.33700180053711,12.576000213623047 C-40.888999938964844,17.6299991607666 -37.143001556396484,20.552000045776367 -32.090999603271484,19.10300064086914 C-32.090999603271484,19.10300064086914 37.3380012512207,-0.8050000071525574 37.3380012512207,-0.8050000071525574 C42.39099884033203,-2.253000020980835 43.7859992980957,-7.52400016784668 42.3380012512207,-12.57699966430664z" style="display: none;"></path></g><g opacity="1" transform="matrix(1,0,0,1,14.29,33.3)"><path stroke-linecap="round" stroke-linejoin="round" fill-opacity="0" stroke="rgb(246,135,68)" stroke-opacity="1" stroke-width="2" d="M0 0 M-1.812000036239624,-3.23799991607666 C-1.812000036239624,-3.23799991607666 1.812000036239624,3.23799991607666 1.812000036239624,3.23799991607666" style="display: none;"></path></g><g opacity="1" transform="matrix(1,0,0,1,38.209,18.059)"><path stroke-linecap="round" stroke-linejoin="round" fill-opacity="0" stroke="rgb(246,135,68)" stroke-opacity="1" stroke-width="2" d="M0 0 M-2.499000072479248,-2.742000102996826 C-2.499000072479248,-2.742000102996826 2.499000072479248,2.742000102996826 2.499000072479248,2.742000102996826" style="display: none;"></path></g><g opacity="1" transform="matrix(1,0,0,1,55.275,20.801)"><path stroke-linecap="round" stroke-linejoin="round" fill-opacity="0" stroke="rgb(246,135,68)" stroke-opacity="1" stroke-width="2" d="M0 0 M1.5950000286102295,-3.3499999046325684 C1.5950000286102295,-3.3499999046325684 -1.5950000286102295,3.3499999046325684 -1.5950000286102295,3.3499999046325684" style="display: none;"></path></g><g opacity="1" transform="matrix(1,0,0,1,63.915,8.799)"><path stroke-linecap="round" stroke-linejoin="round" fill-opacity="0" stroke="rgb(246,135,68)" stroke-opacity="1" stroke-width="2" d="M0 0 M-2.8940000534057617,-2.322000026702881 C-2.8940000534057617,-2.322000026702881 2.8940000534057617,2.322000026702881 2.8940000534057617,2.322000026702881" style="display: none;"></path></g><g opacity="1" transform="matrix(1,0,0,1,82.652,12.889)"><path stroke-linecap="round" stroke-linejoin="round" fill-opacity="0" stroke="rgb(246,135,68)" stroke-opacity="1" stroke-width="2" d="M0 0 M-3.0769999027252197,-1.7690000534057617 C-3.0769999027252197,-1.7690000534057617 3.0769999027252197,1.7690000534057617 3.0769999027252197,1.7690000534057617" style="display: none;"></path></g><g opacity="1" transform="matrix(1,0,0,1,71.38,20.339)"><path stroke-linecap="round" stroke-linejoin="round" fill-opacity="0" stroke="rgb(246,135,68)" stroke-opacity="1" stroke-width="2" d="M0 0 M-2.318000078201294,-1.8589999675750732 C-2.318000078201294,-1.8589999675750732 2.318000078201294,1.8589999675750732 2.318000078201294,1.8589999675750732" style="display: none;"></path></g><g opacity="1" transform="matrix(1,0,0,1,30.439,31.588)"><path stroke-linecap="round" stroke-linejoin="round" fill-opacity="0" stroke="rgb(246,135,68)" stroke-opacity="1" stroke-width="2" d="M0 0 M-1.3919999599456787,3.01200008392334 C-1.3919999599456787,3.01200008392334 1.3919999599456787,-3.01200008392334 1.3919999599456787,-3.01200008392334" style="display: none;"></path></g><g opacity="1" transform="matrix(1,0,0,1,17.965,21.605)"><path stroke-linecap="round" stroke-linejoin="round" fill-opacity="0" stroke="rgb(246,135,68)" stroke-opacity="1" stroke-width="2" d="M0 0 M2.8010001182556152,1.781000018119812 C2.8010001182556152,1.781000018119812 -2.8010001182556152,-1.781000018119812 -2.8010001182556152,-1.781000018119812" style="display: none;"></path></g></g><g style="display: none;"></g><g clip-path="url(#cp_10EqmE9s)" transform="matrix(0.9563,-0.2924,0.2924,0.9563,223.333,101.6482)" opacity="1" style="display: none;"><g transform="matrix(0.2079,0.9781,-0.9781,0.2079,92.1206,454.8275)" opacity="1" style="user-select: none; display: none;"><g opacity="1" transform="matrix(1,0,0,1,0,0)"><path fill="rgb(255,0,0)" fill-opacity="1" d="M0 0 M-282.6289978027344,-188.55599975585938 C-279.25201416015625,-177.13800048828125 -276.2619934082031,-167.0260009765625 -276.2619934082031,-167.0260009765625" style="display: none;"></path><path stroke-linecap="round" stroke-linejoin="miter" fill-opacity="0" stroke-miterlimit="4" stroke="rgb(246,136,68)" stroke-opacity="1" stroke-width="5" d="M0 0 M-282.6289978027344,-188.55599975585938 C-279.25201416015625,-177.13800048828125 -276.2619934082031,-167.0260009765625 -276.2619934082031,-167.0260009765625" style="display: none;"></path></g></g><g transform="matrix(0.6018,0.7986,-0.7986,0.6018,208.8662,443.2418)" opacity="1" style="user-select: none; display: none;"><g opacity="1" transform="matrix(1,0,0,1,0,0)"><path fill="rgb(255,0,0)" fill-opacity="1" d="M0 0 M-282.6289978027344,-188.55599975585938 C-279.25201416015625,-177.13800048828125 -276.2619934082031,-167.0260009765625 -276.2619934082031,-167.0260009765625" style="display: none;"></path><path stroke-linecap="round" stroke-linejoin="miter" fill-opacity="0" stroke-miterlimit="4" stroke="rgb(246,136,68)" stroke-opacity="1" stroke-width="5" d="M0 0 M-282.6289978027344,-188.55599975585938 C-279.25201416015625,-177.13800048828125 -276.2619934082031,-167.0260009765625 -276.2619934082031,-167.0260009765625" style="display: none;"></path></g></g><g transform="matrix(0.891,0.454,-0.454,0.891,313.2588,381.0522)" opacity="1" style="user-select: none; display: none;"><g opacity="1" transform="matrix(1,0,0,1,0,0)"><path fill="rgb(255,0,0)" fill-opacity="1" d="M0 0 M-282.6289978027344,-188.55599975585938 C-279.25201416015625,-177.13800048828125 -276.2619934082031,-167.0260009765625 -276.2619934082031,-167.0260009765625" style="display: none;"></path><path stroke-linecap="round" stroke-linejoin="miter" fill-opacity="0" stroke-miterlimit="4" stroke="rgb(246,136,68)" stroke-opacity="1" stroke-width="5" d="M0 0 M-282.6289978027344,-188.55599975585938 C-279.25201416015625,-177.13800048828125 -276.2619934082031,-167.0260009765625 -276.2619934082031,-167.0260009765625" style="display: none;"></path></g></g><g transform="matrix(0.891,-0.454,0.454,0.891,398.1378,150.1404)" opacity="1" style="user-select: none; display: none;"><g opacity="1" transform="matrix(1,0,0,1,0,0)"><path fill="rgb(255,0,0)" fill-opacity="1" d="M0 0 M-282.6289978027344,-188.55599975585938 C-279.25201416015625,-177.13800048828125 -276.2619934082031,-167.0260009765625 -276.2619934082031,-167.0260009765625" style="display: none;"></path><path stroke-linecap="round" stroke-linejoin="miter" fill-opacity="0" stroke-miterlimit="4" stroke="rgb(246,136,68)" stroke-opacity="1" stroke-width="5" d="M0 0 M-282.6289978027344,-188.55599975585938 C-279.25201416015625,-177.13800048828125 -276.2619934082031,-167.0260009765625 -276.2619934082031,-167.0260009765625" style="display: none;"></path></g></g><g transform="matrix(1,0,0,1,384,276)" opacity="1" style="user-select: none; display: none;"><g opacity="1" transform="matrix(1,0,0,1,0,0)"><path fill="rgb(255,0,0)" fill-opacity="1" d="M0 0 M-282.6289978027344,-188.55599975585938 C-279.25201416015625,-177.13800048828125 -276.2619934082031,-167.0260009765625 -276.2619934082031,-167.0260009765625" style="display: none;"></path><path stroke-linecap="round" stroke-linejoin="miter" fill-opacity="0" stroke-miterlimit="4" stroke="rgb(246,136,68)" stroke-opacity="1" stroke-width="5" d="M0 0 M-282.6289978027344,-188.55599975585938 C-279.25201416015625,-177.13800048828125 -276.2619934082031,-167.0260009765625 -276.2619934082031,-167.0260009765625" style="display: none;">
</path></g></g></g></g></g></svg>